<svg viewBox="0 0 40 40" fill="none" xmlns="http://www.w3.org/2000/svg">
<path d="M28.8227 18.3123C28.9375 18.9148 29 19.5447 29 20.2021C29 25.3439 25.4883 29 20.1843 29C18.9781 29.0004 17.7836 28.7678 16.6692 28.3156C15.5547 27.8635 14.5421 27.2006 13.6892 26.3648C12.8363 25.529 12.1598 24.5367 11.6984 23.4446C11.2369 22.3525 10.9996 21.182 11 20C10.9996 18.818 11.2369 17.6475 11.6984 16.5554C12.1598 15.4633 12.8363 14.471 13.6892 13.6352C14.5421 12.7994 15.5547 12.1365 16.6692 11.6844C17.7836 11.2322 18.9781 10.9996 20.1843 11C22.6641 11 24.7363 11.8941 26.3261 13.346L23.7371 15.8831V15.8767C22.7733 14.977 21.5501 14.5153 20.1843 14.5153C17.1539 14.5153 14.6909 17.0241 14.6909 19.9945C14.6909 22.964 17.1539 25.4783 20.1843 25.4783C22.9338 25.4783 24.8053 23.9377 25.1897 21.8221H20.1843V18.3123H28.8237H28.8227Z" fill="currentColor"/>
</svg>
