<svg viewBox="0 0 32 32" xmlns="http://www.w3.org/2000/svg">
    <path d="M28.4138 7.4955H31.1724C31.6414 7.4955 32 7.09189 32 6.63063C32 6.57297 32 6.54414 32 6.51532C31.9724 4.75676 31.3103 3.11351 30.0966 1.87387C29.0483 0.807207 27.669 0.201802 26.2345 0.0288289L25.6552 0H6.34483C4.35862 0 2.75862 1.67207 2.75862 3.74775V5.70811C2.75862 6.16937 3.08965 6.6018 3.53103 6.63063C4 6.65946 4.41379 6.25586 4.41379 5.76577V3.74775C4.41379 2.62342 5.26897 1.72973 6.34483 1.72973H24.8276V3.74775C24.8276 5.82342 26.4276 7.4955 28.4138 7.4955ZM26.4828 1.81622C27.4207 1.98919 28.2759 2.45045 28.9655 3.17117C29.6552 3.89189 30.0966 4.78559 30.2621 5.76577H28.4138C27.3379 5.76577 26.4828 4.87207 26.4828 3.74775V1.81622ZM31.0069 10.4072C30.6207 10.4937 30.3448 10.8685 30.3448 11.3009V29.1171C30.3448 29.7802 29.7931 30.3279 29.131 30.2703C28.5517 30.2126 28.1379 29.6649 28.1379 29.0595V14.7027C28.1379 13.4342 27.1448 12.3964 25.931 12.3964H16.8828C15.6966 12.3964 14.5655 11.791 13.8759 10.8108C12.8828 9.3982 11.2552 8.64865 9.57241 8.64865H2.2069C0.993103 8.64865 0 9.68649 0 10.955V29.6937C0 30.9622 0.993103 32 2.2069 32H29.3241C29.3517 32 29.4069 32 29.4345 32C30.869 31.8847 32 30.645 32 29.1171V11.2432C32 10.6955 31.531 10.2919 31.0069 10.4072Z"/>
</svg>
