<svg version="1.1" xmlns="http://www.w3.org/2000/svg" xmlns:xlink="http://www.w3.org/1999/xlink">
  <symbol id="profile-zamok" viewBox="0 0 32 32" fill="none">
    <path d="M22 32H10C6.7 32 4 29.6 4 26.6667V17.3333C4 14.4 6.7 12 10 12H22C25.3 12 28 14.4 28 17.3333V26.6667C28 29.6 25.3 32 22 32ZM10 14.6667C8.35 14.6667 7 15.8667 7 17.3333V26.6667C7 28.1333 8.35 29.3333 10 29.3333H22C23.65 29.3333 25 28.1333 25 26.6667V17.3333C25 15.8667 23.65 14.6667 22 14.6667H10Z"
          fill="#D3A1DF"/>
    <path d="M23.5 14.6667H8.5C7.6 14.6667 7 14.1333 7 13.3333V8C7 3.6 11.05 0 16 0C21.1 0 25 3.6 25 8V13.3333C25 14.1333 24.4 14.6667 23.5 14.6667ZM10 12H22V8C22 5.06667 19.3 2.66667 16 2.66667C12.7 2.66667 10 5.06667 10 8V12Z"
          fill="#D3A1DF"/>
    <path d="M16 22.6668C17.6569 22.6668 19 21.4729 19 20.0002C19 18.5274 17.6569 17.3335 16 17.3335C14.3431 17.3335 13 18.5274 13 20.0002C13 21.4729 14.3431 22.6668 16 22.6668Z" fill="#D3A1DF"/>
    <path d="M16 26.6667C15.1 26.6667 14.5 26.1333 14.5 25.3333V21.3333C14.5 20.5333 15.1 20 16 20C16.9 20 17.5 20.5333 17.5 21.3333V25.3333C17.5 26.1333 16.9 26.6667 16 26.6667Z" fill="#D3A1DF"/>
  </symbol>

  <symbol id="profile-person" viewBox="0 0 40 40">
    <path d="M20 0C9.158 0 0 9.158 0 20C0 30.842 9.158 40 20 40C30.842 40 40 30.842 40 20C40 9.158 30.842 0 20 0ZM20 10C23.454 10 26 12.544 26 16C26 19.456 23.454 22 20 22C16.548 22 14 19.456 14 16C14 12.544 16.548 10 20 10ZM9.788 29.544C11.582 26.904 14.574 25.144 18 25.144H22C25.428 25.144 28.418 26.904 30.212 29.544C27.656 32.28 24.03 34 20 34C15.97 34 12.344 32.28 9.788 29.544Z"/>
  </symbol>

  <symbol id="profile-favorite" viewBox="0 0 40 40">
    <path d="M28.7529 0.924316C25.323 0.924316 22.1146 2.49372 20 5.1183C17.8853 2.49372 14.677 0.924316 11.2471 0.924316C5.04544 0.924316 0 5.96976 0 12.1713C0 17.0426 2.91043 22.6833 8.65031 28.9367C13.0742 33.7563 17.887 37.4882 19.2567 38.5172L19.9998 39.0755L20.7428 38.5173C22.1125 37.4883 26.9254 33.7565 31.3494 28.9369C37.0895 22.6836 40 17.0428 40 12.1713C40 5.96976 34.9546 0.924316 28.7529 0.924316Z"/>
  </symbol>

  <symbol id="profile-msg" viewBox="0 0 40 40">
    <path d="M35.6151 1.45312H4.38487C1.96237 1.45312 0 3.41664 0 5.83799V25.71C0 28.1314 1.96237 30.0949 4.38487 30.0949H6.08342L2.61537 37.0515C2.36719 37.4411 2.4263 37.9489 2.75549 38.2692C2.94324 38.4543 3.18886 38.5469 3.43571 38.5469C3.62098 38.5469 3.8112 38.4929 3.97713 38.3823L18.4253 30.0949H35.6151C38.0377 30.0949 40 28.1314 40 25.71V5.83799C40 3.41664 38.0376 1.45312 35.6151 1.45312ZM10.983 18.6374C9.37282 18.6374 8.06743 17.332 8.06743 15.7218C8.06743 14.1116 9.37282 12.8062 10.983 12.8062C12.5933 12.8062 13.8986 14.1116 13.8986 15.7218C13.8986 17.332 12.5932 18.6374 10.983 18.6374ZM20 18.6374C18.3898 18.6374 17.0845 17.332 17.0845 15.7218C17.0845 14.1116 18.3898 12.8062 20 12.8062C21.6102 12.8062 22.9156 14.1116 22.9156 15.7218C22.9156 17.332 21.6102 18.6374 20 18.6374ZM29.017 18.6374C27.4068 18.6374 26.1014 17.332 26.1014 15.7218C26.1014 14.1116 27.4068 12.8062 29.017 12.8062C30.6272 12.8062 31.9326 14.1116 31.9326 15.7218C31.9326 17.332 30.6273 18.6374 29.017 18.6374Z"/>
  </symbol>

  <symbol id="profile-login" viewBox="0 0 40 40">
    <path d="M29.684 21.0415C29.7019 21.0148 29.7173 20.9871 29.7336 20.9598C29.7486 20.9346 29.7644 20.9102 29.7781 20.8844C29.7933 20.8561 29.806 20.8273 29.8195 20.7985C29.8322 20.7718 29.8455 20.7455 29.8568 20.7181C29.8685 20.69 29.8779 20.6613 29.888 20.6327C29.8985 20.6036 29.9098 20.5748 29.9188 20.545C29.9276 20.5161 29.934 20.4869 29.9413 20.4577C29.949 20.4275 29.9573 20.3978 29.9634 20.367C29.9702 20.3329 29.9743 20.2987 29.9792 20.2643C29.9828 20.238 29.9878 20.2123 29.9905 20.1857C30.0027 20.0624 30.0027 19.9384 29.9905 19.8151C29.9878 19.7884 29.9828 19.7626 29.9791 19.7362C29.9743 19.702 29.9702 19.6677 29.9634 19.6338C29.9573 19.603 29.9489 19.5732 29.9412 19.5428C29.9339 19.5138 29.9276 19.4847 29.9188 19.4559C29.9098 19.4259 29.8984 19.397 29.888 19.3676C29.8778 19.3393 29.8686 19.3109 29.857 19.283C29.8455 19.2552 29.832 19.2287 29.8192 19.2017C29.8059 19.1734 29.7932 19.1447 29.7784 19.1169C29.7644 19.0906 29.7482 19.0656 29.7331 19.0402C29.717 19.0133 29.7017 18.9859 29.6841 18.9597C29.665 18.9309 29.6435 18.9038 29.6227 18.8763C29.6067 18.8551 29.592 18.8332 29.5751 18.8124C29.5355 18.7645 29.4941 18.7182 29.4501 18.6743L23.8255 13.0497C23.0935 12.3174 21.9063 12.3174 21.1739 13.0497C20.4416 13.782 20.4416 14.9691 21.1739 15.7013L23.5983 18.1257H1.875C0.839531 18.1257 0 18.9651 0 20.0007C0 21.0362 0.839531 21.8757 1.875 21.8757H23.598L21.1738 24.2998C20.4416 25.0321 20.4416 26.2192 21.1738 26.9515C21.5399 27.3176 22.0198 27.5007 22.4996 27.5007C22.9795 27.5007 23.4594 27.3177 23.8254 26.9515L29.4502 21.3269C29.4939 21.2831 29.5354 21.237 29.5747 21.189C29.5923 21.1677 29.6074 21.1452 29.6238 21.1235C29.6441 21.0961 29.6652 21.0696 29.684 21.0415Z"/>
    <path d="M38.125 36.875H14.375C13.3395 36.875 12.5 36.0355 12.5 35V27.4998C12.5 26.4642 13.3395 25.6248 14.375 25.6248C15.4105 25.6248 16.25 26.4642 16.25 27.4998V33.125H36.25V6.875H16.25V12.5C16.25 13.5355 15.4105 14.375 14.375 14.375C13.3395 14.375 12.5 13.5355 12.5 12.5V5C12.5 3.96438 13.3395 3.125 14.375 3.125H38.125C39.1605 3.125 40 3.96438 40 5V35C40 36.0356 39.1605 36.875 38.125 36.875Z"/>
  </symbol>


  <symbol id="icon_search" viewBox="0 0 32 32">
    <title>Search</title>
    <path d="M20.667 18.667h-1.053l-0.373-0.36c1.307-1.52 2.093-3.493 2.093-5.64 0-4.787-3.88-8.667-8.667-8.667s-8.667 3.88-8.667 8.667 3.88 8.667 8.667 8.667c2.147 0 4.12-0.787 5.64-2.093l0.36 0.373v1.053l6.667 6.653 1.987-1.987-6.653-6.667zM12.667 18.667c-3.32 0-6-2.68-6-6s2.68-6 6-6 6 2.68 6 6-2.68 6-6 6z"/>
  </symbol>

</svg>
